<svg width="124" height="186" viewBox="0 0 124 186" fill="none" xmlns="http://www.w3.org/2000/svg">
<g filter="url(#filter0_d_13_2)">
<mask id="path-1-inside-1_13_2" fill="white">
<path d="M61.83 0C46.4974 0.0158832 31.7973 6.11377 20.9556 16.9556C10.1138 27.7973 4.01588 42.4974 4 57.83V119.74C4 135.077 10.0928 149.787 20.938 160.632C31.7832 171.477 46.4925 177.57 61.83 177.57C77.1675 177.57 91.8768 171.477 102.722 160.632C113.567 149.787 119.66 135.077 119.66 119.74V57.83C119.641 42.4982 113.543 27.7997 102.702 16.9585C91.8603 6.11726 77.1618 0.0185247 61.83 0ZM64.33 131.81V123.42C81.2392 123.992 97.3098 130.924 109.33 142.83C108.068 145.413 106.597 147.888 104.93 150.23C94.301 139.052 79.7414 132.447 64.33 131.81ZM18.73 150.22C17.0611 147.883 15.5893 145.411 14.33 142.83C26.3491 130.922 42.4204 123.99 59.33 123.42V131.81C43.9206 132.446 29.3619 139.048 18.73 150.22ZM23.07 119.74V102.09C24.23 102.84 25.43 103.53 26.66 104.17C32.8447 107.357 39.7026 109.016 46.66 109.01C50.9447 109.009 55.2064 108.383 59.31 107.15V118.42C46.8815 118.805 34.7632 122.394 24.13 128.84C23.4154 125.86 23.0596 122.805 23.07 119.74ZM42.16 18.74L37.62 10.88C41.5991 8.81685 45.8272 7.27419 50.2 6.29L51.78 15.23C48.4437 16.0176 45.2139 17.2028 42.16 18.76V18.74ZM61.83 19.05C72.1057 19.0632 81.9568 23.1511 89.2228 30.4172C96.4889 37.6832 100.577 47.5343 100.59 57.81V70.02C91.7299 70.3274 83.1694 73.3041 76.03 78.56C78.7752 70.3717 79.0499 61.5565 76.82 53.2131C74.5901 44.8697 69.9542 37.367 63.49 31.64L61.83 30.16L60.17 31.64C53.6982 37.3615 49.0569 44.8641 46.8265 53.2095C44.5961 61.5549 44.8756 70.3726 47.63 78.56C45.7309 77.1789 43.7245 75.9517 41.63 74.89C35.8654 71.9233 29.5103 70.2833 23.03 70.09V57.83C23.0432 47.5473 27.1366 37.6902 34.4113 30.423C41.686 23.1558 51.5473 19.0726 61.83 19.07V19.05ZM71.83 15.22L73.41 6.28C77.7859 7.26931 82.017 8.81523 86 10.88L81.46 18.74C78.4176 17.2036 75.2057 16.029 71.89 15.24L71.83 15.22ZM21.65 75C27.8215 74.989 33.9054 76.4603 39.39 79.29C47.4766 83.4329 53.8664 90.2647 57.46 98.61L13.15 75.94C15.9403 75.316 18.7908 75.0008 21.65 75ZM64.33 89.47V39.69C70.1307 46.6873 73.3052 55.491 73.3052 64.58C73.3052 73.669 70.1307 82.4727 64.33 89.47ZM59.33 89.47C53.5293 82.4727 50.3548 73.669 50.3548 64.58C50.3548 55.491 53.5293 46.6873 59.33 39.69V89.47ZM84.27 79.29C89.7546 76.4603 95.8385 74.989 102.01 75C104.869 75.0012 107.72 75.3164 110.51 75.94L66.2 98.61C69.7936 90.2647 76.1834 83.4329 84.27 79.29ZM105.59 70.15V60.33H114.66V71.86C111.705 70.9736 108.665 70.4004 105.59 70.15ZM105.51 55.33C105.325 51.9073 104.727 48.5194 103.73 45.24L112.27 42.13C113.606 46.4123 114.386 50.8487 114.59 55.33H105.51ZM102.02 40.56C100.664 37.4062 98.9419 34.4225 96.89 31.67L103.83 25.84C106.558 29.4009 108.819 33.2958 110.56 37.43L102.02 40.56ZM21.64 40.56L13.1 37.45C14.8415 33.3215 17.0995 29.4304 19.82 25.87L26.82 31.69C24.7505 34.4326 23.0118 37.4099 21.64 40.56ZM19.89 45.24C18.9007 48.5209 18.3065 51.9082 18.12 55.33H9.07C9.27167 50.8492 10.048 46.413 11.38 42.13L19.89 45.24ZM18.04 60.33V70.15C14.9649 70.3994 11.9248 70.9726 8.97 71.86V60.33H18.04ZM55.18 103.06C46.3124 105.061 37.0234 103.879 28.94 99.72C20.8607 95.5689 14.4787 88.7343 10.89 80.39L55.18 103.06ZM99.51 128.84C88.8762 122.395 76.7583 118.806 64.33 118.42V107.15C75.1982 110.413 86.9078 109.338 97 104.15C98.23 103.51 99.43 102.82 100.59 102.07V119.72C100.59 122.792 100.227 125.853 99.51 128.84ZM94.72 99.72C86.6309 103.872 77.3425 105.057 68.47 103.07L112.79 80.39C109.191 88.7339 102.803 95.5672 94.72 99.72ZM100.62 22.01L93.62 27.85C91.2745 25.357 88.6468 23.1455 85.79 21.26L90.32 13.4C94.1003 15.8273 97.5608 18.72 100.62 22.01ZM68.52 5.44L66.95 14.38C63.5458 13.9667 60.1042 13.9667 56.7 14.38L55.13 5.44C59.5741 4.85339 64.0759 4.85339 68.52 5.44ZM33.29 13.44L37.83 21.29C34.9701 23.1754 32.3391 25.3869 29.99 27.88L22.99 22.05C26.0416 18.7434 29.5029 15.8399 33.29 13.41V13.44ZM9 87.65C11.432 91.6873 14.494 95.3097 18.07 98.38V119.74C18.0717 123.798 18.6371 127.837 19.75 131.74C17.1087 133.617 14.5933 135.664 12.22 137.87C10.0855 132.057 8.99535 125.912 9 119.72V87.65ZM64.33 150.2C74.8347 150.825 84.6993 155.457 91.89 163.14C89.5237 164.787 87.0252 166.235 84.42 167.47C78.956 162.265 71.8559 159.116 64.33 158.56V150.2ZM59.33 158.6C51.8057 159.143 44.7023 162.277 39.23 167.47C36.6248 166.235 34.1263 164.787 31.76 163.14C38.952 155.453 48.8212 150.821 59.33 150.2V158.6ZM44.4 169.56C49.3494 165.611 55.4933 163.461 61.825 163.461C68.1567 163.461 74.3006 165.611 79.25 169.56C67.9685 173.507 55.6815 173.507 44.4 169.56ZM95.89 160.08C91.5578 155.364 86.2936 151.599 80.4306 149.024C74.5676 146.448 68.2337 145.119 61.83 145.119C55.4263 145.119 49.0924 146.448 43.2294 149.024C37.3664 151.599 32.1022 155.364 27.77 160.08C25.6615 158.282 23.6956 156.322 21.89 154.22C26.9871 148.708 33.1691 144.31 40.0476 141.302C46.9262 138.294 54.3525 136.741 61.86 136.741C69.3675 136.741 76.7938 138.294 83.6724 141.302C90.5509 144.31 96.7329 148.708 101.83 154.22C100.003 156.322 98.0168 158.281 95.89 160.08ZM111.44 137.89C109.06 135.684 106.538 133.636 103.89 131.76C105.003 127.857 105.568 123.818 105.57 119.76V98.38C109.146 95.3097 112.208 91.6873 114.64 87.65V119.74C114.651 125.931 113.568 132.076 111.44 137.89Z"/>
</mask>
<path d="M61.83 0C46.4974 0.0158832 31.7973 6.11377 20.9556 16.9556C10.1138 27.7973 4.01588 42.4974 4 57.83V119.74C4 135.077 10.0928 149.787 20.938 160.632C31.7832 171.477 46.4925 177.57 61.83 177.57C77.1675 177.57 91.8768 171.477 102.722 160.632C113.567 149.787 119.66 135.077 119.66 119.74V57.83C119.641 42.4982 113.543 27.7997 102.702 16.9585C91.8603 6.11726 77.1618 0.0185247 61.83 0ZM64.33 131.81V123.42C81.2392 123.992 97.3098 130.924 109.33 142.83C108.068 145.413 106.597 147.888 104.93 150.23C94.301 139.052 79.7414 132.447 64.33 131.81ZM18.73 150.22C17.0611 147.883 15.5893 145.411 14.33 142.83C26.3491 130.922 42.4204 123.99 59.33 123.42V131.81C43.9206 132.446 29.3619 139.048 18.73 150.22ZM23.07 119.74V102.09C24.23 102.84 25.43 103.53 26.66 104.17C32.8447 107.357 39.7026 109.016 46.66 109.01C50.9447 109.009 55.2064 108.383 59.31 107.15V118.42C46.8815 118.805 34.7632 122.394 24.13 128.84C23.4154 125.86 23.0596 122.805 23.07 119.74ZM42.16 18.74L37.62 10.88C41.5991 8.81685 45.8272 7.27419 50.2 6.29L51.78 15.23C48.4437 16.0176 45.2139 17.2028 42.16 18.76V18.74ZM61.83 19.05C72.1057 19.0632 81.9568 23.1511 89.2228 30.4172C96.4889 37.6832 100.577 47.5343 100.59 57.81V70.02C91.7299 70.3274 83.1694 73.3041 76.03 78.56C78.7752 70.3717 79.0499 61.5565 76.82 53.2131C74.5901 44.8697 69.9542 37.367 63.49 31.64L61.83 30.16L60.17 31.64C53.6982 37.3615 49.0569 44.8641 46.8265 53.2095C44.5961 61.5549 44.8756 70.3726 47.63 78.56C45.7309 77.1789 43.7245 75.9517 41.63 74.89C35.8654 71.9233 29.5103 70.2833 23.03 70.09V57.83C23.0432 47.5473 27.1366 37.6902 34.4113 30.423C41.686 23.1558 51.5473 19.0726 61.83 19.07V19.05ZM71.83 15.22L73.41 6.28C77.7859 7.26931 82.017 8.81523 86 10.88L81.46 18.74C78.4176 17.2036 75.2057 16.029 71.89 15.24L71.83 15.22ZM21.65 75C27.8215 74.989 33.9054 76.4603 39.39 79.29C47.4766 83.4329 53.8664 90.2647 57.46 98.61L13.15 75.94C15.9403 75.316 18.7908 75.0008 21.65 75ZM64.33 89.47V39.69C70.1307 46.6873 73.3052 55.491 73.3052 64.58C73.3052 73.669 70.1307 82.4727 64.33 89.47ZM59.33 89.47C53.5293 82.4727 50.3548 73.669 50.3548 64.58C50.3548 55.491 53.5293 46.6873 59.33 39.69V89.47ZM84.27 79.29C89.7546 76.4603 95.8385 74.989 102.01 75C104.869 75.0012 107.72 75.3164 110.51 75.94L66.2 98.61C69.7936 90.2647 76.1834 83.4329 84.27 79.29ZM105.59 70.15V60.33H114.66V71.86C111.705 70.9736 108.665 70.4004 105.59 70.15ZM105.51 55.33C105.325 51.9073 104.727 48.5194 103.73 45.24L112.27 42.13C113.606 46.4123 114.386 50.8487 114.59 55.33H105.51ZM102.02 40.56C100.664 37.4062 98.9419 34.4225 96.89 31.67L103.83 25.84C106.558 29.4009 108.819 33.2958 110.56 37.43L102.02 40.56ZM21.64 40.56L13.1 37.45C14.8415 33.3215 17.0995 29.4304 19.82 25.87L26.82 31.69C24.7505 34.4326 23.0118 37.4099 21.64 40.56ZM19.89 45.24C18.9007 48.5209 18.3065 51.9082 18.12 55.33H9.07C9.27167 50.8492 10.048 46.413 11.38 42.13L19.89 45.24ZM18.04 60.33V70.15C14.9649 70.3994 11.9248 70.9726 8.97 71.86V60.33H18.04ZM55.18 103.06C46.3124 105.061 37.0234 103.879 28.94 99.72C20.8607 95.5689 14.4787 88.7343 10.89 80.39L55.18 103.06ZM99.51 128.84C88.8762 122.395 76.7583 118.806 64.33 118.42V107.15C75.1982 110.413 86.9078 109.338 97 104.15C98.23 103.51 99.43 102.82 100.59 102.07V119.72C100.59 122.792 100.227 125.853 99.51 128.84ZM94.72 99.72C86.6309 103.872 77.3425 105.057 68.47 103.07L112.79 80.39C109.191 88.7339 102.803 95.5672 94.72 99.72ZM100.62 22.01L93.62 27.85C91.2745 25.357 88.6468 23.1455 85.79 21.26L90.32 13.4C94.1003 15.8273 97.5608 18.72 100.62 22.01ZM68.52 5.44L66.95 14.38C63.5458 13.9667 60.1042 13.9667 56.7 14.38L55.13 5.44C59.5741 4.85339 64.0759 4.85339 68.52 5.44ZM33.29 13.44L37.83 21.29C34.9701 23.1754 32.3391 25.3869 29.99 27.88L22.99 22.05C26.0416 18.7434 29.5029 15.8399 33.29 13.41V13.44ZM9 87.65C11.432 91.6873 14.494 95.3097 18.07 98.38V119.74C18.0717 123.798 18.6371 127.837 19.75 131.74C17.1087 133.617 14.5933 135.664 12.22 137.87C10.0855 132.057 8.99535 125.912 9 119.72V87.65ZM64.33 150.2C74.8347 150.825 84.6993 155.457 91.89 163.14C89.5237 164.787 87.0252 166.235 84.42 167.47C78.956 162.265 71.8559 159.116 64.33 158.56V150.2ZM59.33 158.6C51.8057 159.143 44.7023 162.277 39.23 167.47C36.6248 166.235 34.1263 164.787 31.76 163.14C38.952 155.453 48.8212 150.821 59.33 150.2V158.6ZM44.4 169.56C49.3494 165.611 55.4933 163.461 61.825 163.461C68.1567 163.461 74.3006 165.611 79.25 169.56C67.9685 173.507 55.6815 173.507 44.4 169.56ZM95.89 160.08C91.5578 155.364 86.2936 151.599 80.4306 149.024C74.5676 146.448 68.2337 145.119 61.83 145.119C55.4263 145.119 49.0924 146.448 43.2294 149.024C37.3664 151.599 32.1022 155.364 27.77 160.08C25.6615 158.282 23.6956 156.322 21.89 154.22C26.9871 148.708 33.1691 144.31 40.0476 141.302C46.9262 138.294 54.3525 136.741 61.86 136.741C69.3675 136.741 76.7938 138.294 83.6724 141.302C90.5509 144.31 96.7329 148.708 101.83 154.22C100.003 156.322 98.0168 158.281 95.89 160.08ZM111.44 137.89C109.06 135.684 106.538 133.636 103.89 131.76C105.003 127.857 105.568 123.818 105.57 119.76V98.38C109.146 95.3097 112.208 91.6873 114.64 87.65V119.74C114.651 125.931 113.568 132.076 111.44 137.89Z" stroke="white" stroke-width="2" shape-rendering="crispEdges" mask="url(#path-1-inside-1_13_2)"/>
</g>
<defs>
<filter id="filter0_d_13_2" x="0" y="0" width="123.66" height="185.57" filterUnits="userSpaceOnUse" color-interpolation-filters="sRGB">
<feFlood flood-opacity="0" result="BackgroundImageFix"/>
<feColorMatrix in="SourceAlpha" type="matrix" values="0 0 0 0 0 0 0 0 0 0 0 0 0 0 0 0 0 0 127 0" result="hardAlpha"/>
<feOffset dy="4"/>
<feGaussianBlur stdDeviation="2"/>
<feComposite in2="hardAlpha" operator="out"/>
<feColorMatrix type="matrix" values="0 0 0 0 0 0 0 0 0 0 0 0 0 0 0 0 0 0 0.25 0"/>
<feBlend mode="normal" in2="BackgroundImageFix" result="effect1_dropShadow_13_2"/>
<feBlend mode="normal" in="SourceGraphic" in2="effect1_dropShadow_13_2" result="shape"/>
</filter>
</defs>
</svg>
